# Blender v2.82 (sub 7) OBJ File: 'trees.blend'
# www.blender.org
mtllib log.mtl
o log_Cylinder.010
v -0.218521 -0.177614 -0.173820
v -1.479896 0.236382 0.056444
v -1.490873 0.219588 0.179024
v -1.562235 -0.046056 0.214421
v -0.371647 -0.178941 0.219097
v 0.140767 0.174246 -0.197158
v 0.466082 -0.218919 -0.295711
v 0.695114 -0.216600 0.085939
v -1.533603 0.107928 0.248323
v -1.602356 -0.155425 -0.094306
v -1.559556 -0.002082 -0.196249
v -1.525735 0.165911 -0.139757
v -1.529263 0.271662 0.203105
v -1.618399 -0.060145 0.247318
v -1.597560 -0.123609 -0.071717
v -1.532320 0.149998 -0.110418
v -1.569174 -0.137646 0.098410
v -1.515126 0.000429 -0.140698
v -1.488049 0.134924 -0.095471
v -1.549391 -0.122337 -0.059082
v -1.561118 0.006957 -0.158519
v 0.569129 0.132850 -0.288385
v -1.618600 -0.139890 0.095782
v -1.580770 0.121286 0.255220
v -1.611221 -0.042481 0.219164
v -1.535324 0.240041 0.181518
v -1.515551 0.292639 0.049995
v 0.100813 0.238664 -0.031136
v 0.145195 -0.004030 -0.261687
v 0.148099 0.178790 0.157368
v 0.548395 -0.281547 -0.091452
v 0.845847 -0.014445 0.170378
v 0.820320 0.257905 -0.073526
v 0.577219 -0.018589 -0.365222
v -0.664527 -0.267952 0.059267
v -1.008239 0.158800 0.202497
v -0.639655 -0.015203 0.305919
v -1.041412 0.125154 -0.139831
v -0.634538 0.229574 0.055420
v -0.682327 -0.022728 -0.189465
v -1.582636 0.132191 0.289664
v -1.627066 -0.174546 0.102412
v 0.854383 0.140268 0.136274
v -1.523649 0.257902 0.051150
v 1.414454 -0.225854 -0.233199
v 1.367370 -0.223313 0.224597
v 1.582230 0.159757 -0.219748
v 1.360302 -0.294508 -0.004966
v 1.455676 -0.001709 0.309378
v 1.601772 0.258862 0.007655
v 1.519866 -0.006251 -0.319232
v 1.555380 0.235434 0.249407
v 1.425171 -0.192502 -0.195996
v 1.385543 -0.190363 0.189305
v 1.566379 0.132046 -0.184675
v 1.379595 -0.250284 -0.003905
v 1.459865 -0.003851 0.260661
v 1.582826 0.215458 0.006718
v 1.513891 -0.007674 -0.268405
v 1.543780 0.175291 0.210187
v 1.353386 -0.195389 -0.203554
v 1.313759 -0.193250 0.181748
v 1.494594 0.129159 -0.192233
v 1.307810 -0.253171 -0.011463
v 1.388080 -0.006738 0.253103
v 1.511041 0.212570 -0.000840
v 1.442106 -0.010561 -0.275963
v 1.471995 0.172404 0.202629
v 0.469526 0.171178 -0.278472
v 0.545828 0.267234 -0.113436
v 0.273891 0.202975 -0.208399
v 0.368415 0.252456 -0.080876
v 0.556695 0.217640 -0.205398
v 0.365014 0.173684 -0.270356
v 0.476002 0.273237 -0.070235
v 0.301254 0.229281 -0.135194
v 0.378758 0.444527 -0.419683
v 0.388321 0.502067 -0.331252
v 0.300895 0.429288 -0.387705
v 0.312487 0.461748 -0.314597
v 0.408059 0.482800 -0.378837
v 0.341550 0.430179 -0.418672
v 0.352851 0.490401 -0.308938
v 0.289587 0.439153 -0.349434
v 0.371179 0.448175 -0.406489
v 0.378491 0.492169 -0.338877
v 0.311646 0.436523 -0.382040
v 0.320509 0.461342 -0.326143
v 0.393582 0.477438 -0.375260
v 0.342731 0.437204 -0.405716
v 0.351371 0.483249 -0.321816
v 0.303000 0.444065 -0.352778
v 0.376628 0.432381 -0.397741
v 0.384721 0.468191 -0.333825
v 0.321433 0.420391 -0.374628
v 0.328280 0.450062 -0.321787
v 0.398249 0.456595 -0.368219
v 0.350277 0.421444 -0.397010
v 0.358297 0.465012 -0.317697
v 0.312683 0.430631 -0.346966
v 0.448079 0.329032 -0.197626
v 0.496415 0.343464 -0.232399
v 0.337913 0.284763 -0.259817
v 0.380241 0.300258 -0.210213
v 0.512226 0.326284 -0.314006
v 0.459273 0.293422 -0.381495
v 0.392560 0.279931 -0.375936
v 0.329988 0.277316 -0.322233
vt 0.924129 0.568007
vt 0.924129 0.554848
vt 0.917700 0.554848
vt 0.917700 0.568007
vt 0.917208 0.568007
vt 0.917208 0.554848
vt 0.910778 0.554848
vt 0.910778 0.568007
vt 0.855407 0.615784
vt 0.868758 0.615784
vt 0.868758 0.612863
vt 0.855407 0.612863
vt 0.937972 0.568007
vt 0.937972 0.554848
vt 0.931543 0.554848
vt 0.931543 0.568007
vt 0.951815 0.540706
vt 0.938710 0.540706
vt 0.951815 0.486841
vt 0.944893 0.554356
vt 0.944893 0.541198
vt 0.941925 0.541198
vt 0.941925 0.554356
vt 0.941433 0.554356
vt 0.941433 0.541198
vt 0.938464 0.541198
vt 0.938464 0.554356
vt 0.931051 0.568007
vt 0.931051 0.554848
vt 0.924621 0.554848
vt 0.924621 0.568007
vt 0.883339 0.540706
vt 0.910286 0.486841
vt 0.910286 0.540706
vt 0.827230 0.568745
vt 0.772596 0.595308
vt 0.827230 0.595308
vt 0.771858 0.568745
vt 0.771858 0.595308
vt 0.717225 0.595308
vt 0.827230 0.486841
vt 0.772596 0.540706
vt 0.827230 0.540706
vt 0.771858 0.377637
vt 0.771858 0.431501
vt 0.717225 0.431501
vt 0.882601 0.431501
vt 0.882601 0.377637
vt 0.827968 0.431501
vt 0.771858 0.540706
vt 0.717225 0.540706
vt 0.771858 0.486841
vt 0.826984 0.486595
vt 0.772350 0.486595
vt 0.772350 0.540460
vt 0.882601 0.568007
vt 0.882601 0.541444
vt 0.827968 0.568007
vt 0.924867 0.540706
vt 0.937972 0.540706
vt 0.937972 0.486841
vt 0.924129 0.540706
vt 0.911024 0.540706
vt 0.924129 0.486841
vt 0.883339 0.554356
vt 0.937972 0.541444
vt 0.937972 0.554356
vt 0.772596 0.431501
vt 0.827230 0.431501
vt 0.827230 0.377637
vt 0.911024 0.431501
vt 0.937972 0.431501
vt 0.937972 0.377637
vt 0.827230 0.486104
vt 0.827230 0.432239
vt 0.772596 0.486104
vt 0.924129 0.581657
vt 0.924129 0.568499
vt 0.917700 0.568499
vt 0.917700 0.581657
vt 0.962197 0.404200
vt 0.962197 0.377391
vt 0.959228 0.377391
vt 0.959228 0.404200
vt 0.951815 0.554356
vt 0.951815 0.541198
vt 0.948846 0.541198
vt 0.948846 0.554356
vt 0.917208 0.581657
vt 0.917208 0.568499
vt 0.910778 0.568499
vt 0.910778 0.581657
vt 0.937972 0.581657
vt 0.937972 0.568499
vt 0.931543 0.568499
vt 0.931543 0.581657
vt 0.951569 0.486595
vt 0.938464 0.540460
vt 0.938464 0.486595
vt 0.931051 0.581657
vt 0.931051 0.568499
vt 0.924621 0.568499
vt 0.924621 0.581657
vt 0.948354 0.554356
vt 0.948354 0.541198
vt 0.945385 0.541198
vt 0.945385 0.554356
vt 0.883093 0.598516
vt 0.910286 0.595800
vt 0.910286 0.608958
vt 0.899294 0.605995
vt 0.886312 0.605042
vt 0.938464 0.615784
vt 0.951815 0.615784
vt 0.951815 0.612863
vt 0.938464 0.612863
vt 0.772350 0.595062
vt 0.826984 0.568499
vt 0.772350 0.568499
vt 0.937972 0.595308
vt 0.883339 0.595308
vt 0.937972 0.582395
vt 0.951815 0.377391
vt 0.938464 0.377391
vt 0.938464 0.431501
vt 0.951815 0.431501
vt 0.910778 0.540460
vt 0.923883 0.486595
vt 0.910778 0.486595
vt 0.827722 0.541198
vt 0.882355 0.541198
vt 0.827722 0.567761
vt 0.882601 0.595308
vt 0.882601 0.568499
vt 0.827722 0.568499
vt 0.827722 0.595308
vt 0.716979 0.377391
vt 0.716979 0.431255
vt 0.771613 0.377391
vt 0.882601 0.486104
vt 0.882601 0.432239
vt 0.827968 0.486104
vt 0.937972 0.486104
vt 0.937972 0.431993
vt 0.910778 0.431993
vt 0.910778 0.486104
vt 0.827722 0.485858
vt 0.882355 0.431993
vt 0.827722 0.431993
vt 0.910778 0.377391
vt 0.910778 0.431255
vt 0.937726 0.377391
vt 0.883339 0.486104
vt 0.910286 0.486104
vt 0.910286 0.432239
vt 0.883093 0.541198
vt 0.937726 0.541198
vt 0.883093 0.554110
vt 0.924621 0.540460
vt 0.924621 0.486595
vt 0.937726 0.486595
vt 0.827722 0.377391
vt 0.882355 0.377391
vt 0.827722 0.431255
vt 0.716979 0.486595
vt 0.771613 0.486595
vt 0.716979 0.540460
vt 0.826984 0.431993
vt 0.772350 0.485858
vt 0.772350 0.431993
vt 0.772350 0.377391
vt 0.826984 0.377391
vt 0.772350 0.431255
vt 0.263100 0.206994
vt 0.256019 0.214807
vt 0.244081 0.215001
vt 0.235907 0.206728
vt 0.236785 0.196621
vt 0.245575 0.188703
vt 0.256577 0.188191
vt 0.263100 0.194465
vt 0.938464 0.612371
vt 0.951815 0.612371
vt 0.951815 0.609450
vt 0.938464 0.609450
vt 0.771613 0.568499
vt 0.716979 0.568499
vt 0.716979 0.595062
vt 0.771858 0.608958
vt 0.771858 0.595800
vt 0.716979 0.595800
vt 0.716979 0.608958
vt 0.910040 0.486595
vt 0.883093 0.486595
vt 0.883093 0.540460
vt 0.854915 0.486595
vt 0.827722 0.486595
vt 0.827722 0.540706
vt 0.854915 0.540706
vt 0.771858 0.568007
vt 0.771858 0.541198
vt 0.716979 0.541198
vt 0.716979 0.568007
vt 0.882601 0.486595
vt 0.855407 0.486595
vt 0.855407 0.540706
vt 0.882601 0.540706
vt 0.827230 0.568007
vt 0.827230 0.541198
vt 0.772350 0.541198
vt 0.772350 0.568007
vt 0.910286 0.377391
vt 0.883093 0.377391
vt 0.883093 0.431501
vt 0.910286 0.431501
vt 0.910778 0.615784
vt 0.937972 0.615784
vt 0.937972 0.609450
vt 0.910778 0.609450
vt 0.958736 0.568007
vt 0.958736 0.541198
vt 0.952307 0.541198
vt 0.952307 0.568007
vt 0.883093 0.615784
vt 0.910286 0.615784
vt 0.910286 0.609450
vt 0.883093 0.609450
vt 0.958736 0.540706
vt 0.958736 0.513896
vt 0.952307 0.513896
vt 0.952307 0.540706
vt 0.785701 0.608958
vt 0.785701 0.595800
vt 0.779272 0.595800
vt 0.779272 0.608958
vt 0.744665 0.615784
vt 0.771858 0.615784
vt 0.771858 0.609450
vt 0.744665 0.609450
vt 0.958736 0.513405
vt 0.958736 0.486595
vt 0.952307 0.486595
vt 0.952307 0.513405
vt 0.716979 0.615784
vt 0.744173 0.615784
vt 0.744173 0.609450
vt 0.716979 0.609450
vt 0.958736 0.486104
vt 0.958736 0.459294
vt 0.952307 0.459294
vt 0.952307 0.486104
vt 0.855407 0.612371
vt 0.882601 0.612371
vt 0.882601 0.606038
vt 0.855407 0.606038
vt 0.958736 0.458802
vt 0.958736 0.431993
vt 0.952307 0.431993
vt 0.952307 0.458802
vt 0.827722 0.612371
vt 0.854915 0.612371
vt 0.854915 0.606038
vt 0.827722 0.606038
vt 0.958736 0.431501
vt 0.958736 0.404692
vt 0.952307 0.404692
vt 0.952307 0.431501
vt 0.910778 0.608958
vt 0.937972 0.608958
vt 0.937972 0.602625
vt 0.910778 0.602625
vt 0.958736 0.404200
vt 0.958736 0.377391
vt 0.952307 0.377391
vt 0.952307 0.404200
vt 0.778780 0.608958
vt 0.778780 0.595800
vt 0.772350 0.595800
vt 0.772350 0.608958
vt 0.072648 0.106372
vt 0.069793 0.084390
vt 0.082048 0.065337
vt 0.105165 0.066277
vt 0.124672 0.079679
vt 0.124672 0.101056
vt 0.110746 0.118379
vt 0.086147 0.119447
vt 0.883093 0.582149
vt 0.883093 0.595062
vt 0.937726 0.582149
vt 0.910040 0.431993
vt 0.883093 0.485858
vt 0.883093 0.431993
vt 0.799544 0.595800
vt 0.793115 0.595800
vt 0.793115 0.608958
vt 0.799544 0.608958
vt 0.882601 0.595800
vt 0.882601 0.602133
vt 0.827722 0.599737
vt 0.859785 0.599110
vt 0.850454 0.598167
vt 0.951815 0.431993
vt 0.951815 0.476810
vt 0.944662 0.486104
vt 0.944605 0.470545
vt 0.938464 0.464663
vt 0.882601 0.602625
vt 0.882601 0.605546
vt 0.827722 0.604673
vt 0.845574 0.603999
vt 0.838518 0.603304
vt 0.944893 0.554848
vt 0.938464 0.554848
vt 0.938464 0.581657
vt 0.944893 0.581657
vt 0.854915 0.619196
vt 0.854915 0.612863
vt 0.827722 0.612863
vt 0.827722 0.619196
vt 0.958736 0.568499
vt 0.952307 0.568499
vt 0.952307 0.595308
vt 0.958736 0.595308
vt 0.792623 0.595800
vt 0.786193 0.595800
vt 0.786193 0.608958
vt 0.792623 0.608958
vt 0.785701 0.609450
vt 0.779272 0.609450
vt 0.779272 0.622609
vt 0.785701 0.622609
vt 0.937972 0.602133
vt 0.937972 0.595800
vt 0.910778 0.595800
vt 0.910778 0.602133
vt 0.951815 0.554848
vt 0.945385 0.554848
vt 0.945385 0.581657
vt 0.951815 0.581657
vt 0.869250 0.615784
vt 0.875679 0.615784
vt 0.875679 0.612863
vt 0.869250 0.612863
vt 0.955275 0.595800
vt 0.952307 0.595800
vt 0.952307 0.598720
vt 0.955275 0.598720
vt 0.944893 0.608958
vt 0.944893 0.602625
vt 0.941925 0.602625
vt 0.941925 0.608958
vt 0.941433 0.608958
vt 0.941433 0.602625
vt 0.938464 0.602625
vt 0.938464 0.608958
vt 0.951815 0.608958
vt 0.951815 0.602625
vt 0.948846 0.602625
vt 0.948846 0.608958
vt 0.955275 0.599212
vt 0.952307 0.599212
vt 0.952307 0.602133
vt 0.955275 0.602133
vt 0.955275 0.602625
vt 0.952307 0.602625
vt 0.952307 0.605546
vt 0.955275 0.605546
vt 0.944893 0.599212
vt 0.941925 0.599212
vt 0.941925 0.602133
vt 0.944893 0.602133
vt 0.941433 0.599212
vt 0.938464 0.599212
vt 0.938464 0.602133
vt 0.941433 0.602133
vt 0.944893 0.595800
vt 0.941925 0.595800
vt 0.941925 0.598720
vt 0.944893 0.598720
vt 0.941433 0.595800
vt 0.938464 0.595800
vt 0.938464 0.598720
vt 0.941433 0.598720
vt 0.951815 0.599212
vt 0.948846 0.599212
vt 0.948846 0.602133
vt 0.951815 0.602133
vt 0.948354 0.599212
vt 0.945385 0.599212
vt 0.945385 0.602133
vt 0.948354 0.602133
vt 0.948354 0.608958
vt 0.948354 0.602625
vt 0.945385 0.602625
vt 0.945385 0.608958
vt 0.951815 0.595800
vt 0.948846 0.595800
vt 0.948846 0.598720
vt 0.951815 0.598720
vt 0.948354 0.595800
vt 0.945385 0.595800
vt 0.945385 0.598720
vt 0.948354 0.598720
vt 0.951815 0.582149
vt 0.938464 0.582149
vt 0.938464 0.595308
vt 0.951815 0.595308
vt 0.827230 0.609450
vt 0.813879 0.609450
vt 0.813879 0.622609
vt 0.827230 0.622609
vt 0.813387 0.609450
vt 0.800036 0.609450
vt 0.800036 0.622609
vt 0.813387 0.622609
vt 0.778780 0.609450
vt 0.772350 0.609450
vt 0.772350 0.622609
vt 0.778780 0.622609
vt 0.799544 0.609450
vt 0.793115 0.609450
vt 0.793115 0.622609
vt 0.799544 0.622609
vt 0.792623 0.609450
vt 0.786193 0.609450
vt 0.786193 0.622609
vt 0.792623 0.622609
vt 0.813387 0.595800
vt 0.806957 0.595800
vt 0.806957 0.608958
vt 0.813387 0.608958
vt 0.827230 0.595800
vt 0.813879 0.595800
vt 0.813879 0.608958
vt 0.827230 0.608958
vt 0.159279 0.231610
vt 0.159279 0.236799
vt 0.157490 0.241076
vt 0.155118 0.242302
vt 0.152850 0.239565
vt 0.153067 0.233064
vt 0.154813 0.229866
vt 0.157594 0.229143
vn -0.2506 -0.4394 -0.8626
vn -0.4200 -0.8933 -0.1600
vn -0.9728 0.2249 -0.0563
vn -0.0500 0.9947 0.0904
vn 0.3848 0.9092 0.1590
vn -0.9732 0.2112 -0.0909
vn -0.9506 0.2773 -0.1393
vn -0.0027 0.7850 -0.6195
vn -0.1031 -0.9619 -0.2534
vn 0.0956 -0.4435 0.8912
vn 0.0621 0.8748 0.4804
vn -0.2332 -0.0037 -0.9724
vn 0.0015 0.8996 0.4367
vn -0.0752 -0.3205 -0.9443
vn 0.0427 -0.9041 0.4252
vn 0.0843 0.3669 0.9264
vn -0.0553 0.9263 -0.3727
vn -0.1008 -0.9889 -0.1088
vn 0.1080 0.4941 0.8627
vn 0.0148 0.3160 -0.9486
vn -0.1020 -0.8461 -0.5231
vn -0.0784 -0.5641 0.8220
vn -0.0277 0.9044 -0.4258
vn -0.3796 -0.2253 0.8973
vn -0.9700 0.2229 -0.0968
vn -0.9693 0.2269 -0.0945
vn -0.2207 0.5819 0.7827
vn -0.0773 0.2281 -0.9706
vn 0.0696 0.8278 -0.5566
vn -0.4272 -0.7411 0.5179
vn -0.9708 0.2179 -0.1008
vn -0.1539 0.9297 -0.3345
vn -0.9713 0.2066 -0.1180
vn 0.0089 -0.9414 0.3373
vn 0.0408 0.2129 0.9762
vn -0.1804 0.3818 -0.9065
vn -0.0075 0.9525 0.3044
vn -0.1840 -0.2295 -0.9557
vn -0.0708 0.2583 -0.9635
vn 0.0232 0.5467 0.8370
vn -0.0567 0.9247 -0.3765
vn 0.0101 0.1734 0.9848
vn -0.0685 -0.8791 -0.4717
vn 0.0851 -0.3544 0.9312
vn 0.0232 0.9545 0.2974
vn 0.0668 -0.5653 -0.8222
vn -0.0011 -0.7848 0.6197
vn 0.0325 0.3881 -0.9210
vn -0.0550 -0.8261 0.5609
vn 0.1497 0.6871 0.7110
vn 0.0057 -0.0835 -0.9965
vn -0.9691 0.2250 -0.1015
vn -0.9700 0.2155 -0.1121
vn -0.2167 0.3240 0.9209
vn 0.0417 0.4797 -0.8765
vn -0.1955 0.8415 0.5036
vn -0.2031 -0.2622 0.9434
vn 0.0542 -0.3713 -0.9269
vn -0.0637 -0.9389 0.3382
vn 0.0138 -0.9565 -0.2913
vn 0.0250 0.8854 -0.4641
vn 0.9115 -0.3999 0.0960
vn 0.9355 -0.3274 0.1328
vn 0.9170 -0.3578 0.1761
vn 0.1119 -0.3177 -0.9416
vn -0.1118 0.4086 0.9059
vn -0.0073 0.9552 -0.2960
vn -0.0052 -0.9165 0.3999
vn 0.0860 0.3259 -0.9415
vn -0.0673 0.9597 0.2727
vn 0.0587 -0.9815 -0.1825
vn -0.0715 -0.4928 0.8672
vn -0.1846 0.2213 0.9576
vn -0.0110 0.9955 0.0944
vn 0.0075 -0.2563 -0.9666
vn 0.0047 0.9412 0.3377
vn 0.1768 0.7786 -0.6021
vn -0.2642 -0.1694 -0.9495
vn 0.8131 0.5790 0.0604
vn -0.8041 0.0673 0.5907
vn 0.2824 0.6455 0.7096
vn -0.9705 -0.2408 0.0088
vn -0.5711 -0.4067 -0.7131
vn -0.3511 0.3911 0.8507
vn 0.7117 0.2019 -0.6729
vn -0.4066 0.7757 -0.4827
vn -0.4950 0.7825 -0.3777
vn -0.5009 0.7798 -0.3755
vn -0.4060 0.7939 -0.4527
vn -0.3412 0.8390 -0.4239
vn -0.3968 0.8537 -0.3373
vn -0.3936 0.8676 -0.3040
vn -0.3357 0.8405 -0.4252
vn 0.7262 0.2493 -0.6406
vn -0.1480 0.4313 0.8900
vn -0.9191 -0.2942 -0.2622
vn -0.4457 -0.3205 -0.8359
vn 0.2301 -0.1610 -0.9598
vn -0.8184 0.0215 0.5742
vn 0.4815 0.5895 0.6486
vn 0.8180 0.5707 0.0717
vn 0.7550 -0.3367 -0.5626
vn -0.2976 0.8787 0.3732
vn -0.5711 -0.5136 -0.6404
vn -0.7732 0.6327 0.0437
vn 0.2076 0.8878 0.4106
vn -0.5154 0.8236 0.2366
vn 0.9037 0.4275 -0.0255
vn -0.0158 -0.6735 -0.7390
vn -0.3576 0.8333 -0.4216
usemtl Lp_trees_texture_atlas
s off
f 24/1/1 26/2/1 3/3/1 9/4/1
f 26/5/2 44/6/2 2/7/2 3/8/2
f 13/9/3 27/10/3 44/11/3 26/12/3
f 15/13/4 23/14/4 17/15/4 20/16/4
f 27/17/5 13/18/5 38/19/5
f 11/20/6 10/21/6 15/22/6 21/23/6
f 41/24/7 13/25/7 26/26/7 24/27/7
f 23/28/8 25/29/8 4/30/8 17/31/8
f 31/32/9 1/33/9 7/34/9
f 32/35/10 5/36/10 8/37/10
f 43/38/11 33/39/11 30/40/11
f 34/41/12 1/42/12 29/43/12
f 30/44/13 39/45/13 36/46/13
f 1/47/14 40/48/14 29/49/14
f 5/50/15 35/51/15 31/52/15
f 32/53/16 30/54/16 37/55/16
f 28/56/17 6/57/17 39/58/17
f 42/59/18 10/60/18 35/61/18
f 13/62/19 41/63/19 36/64/19
f 40/65/20 11/66/20 12/67/20
f 1/68/21 35/69/21 11/70/21
f 5/71/22 37/72/22 42/73/22
f 38/74/23 13/75/23 39/76/23
f 16/77/24 21/78/24 18/79/24 19/80/24
f 27/81/25 12/82/25 16/83/25 44/84/25
f 12/85/26 11/86/26 21/87/26 16/88/26
f 21/89/27 15/90/27 20/91/27 18/92/27
f 25/93/28 24/94/28 9/95/28 4/96/28
f 27/97/29 38/98/29 12/99/29
f 44/100/30 16/101/30 19/102/30 2/103/30
f 10/104/31 42/105/31 23/106/31 15/107/31
f 6/108/32 28/109/32 72/110/32 76/111/32 71/112/32
f 14/113/33 41/114/33 24/115/33 25/116/33
f 8/117/34 5/118/34 31/119/34
f 43/120/35 30/121/35 32/122/35
f 29/123/36 6/124/36 22/125/36 34/126/36
f 33/127/37 28/128/37 30/129/37
f 7/130/38 1/131/38 34/132/38
f 40/133/39 38/134/39 6/135/39 29/136/39
f 37/137/40 30/138/40 36/139/40
f 39/140/41 6/141/41 38/142/41
f 14/143/42 37/144/42 36/145/42 41/146/42
f 31/147/43 35/148/43 1/149/43
f 5/150/44 32/151/44 37/152/44
f 30/153/45 28/154/45 39/155/45
f 11/156/46 35/157/46 10/158/46
f 37/159/47 14/160/47 42/161/47
f 38/162/48 40/163/48 12/164/48
f 35/165/49 5/166/49 42/167/49
f 39/168/50 13/169/50 36/170/50
f 40/171/51 1/172/51 11/173/51
f 19/174/52 18/175/52 20/176/52 17/177/52 4/178/52 9/179/52 3/180/52 2/181/52
f 42/182/53 14/183/53 25/184/53 23/185/53
f 32/186/54 49/187/54 52/188/54
f 34/189/55 22/190/55 47/191/55 51/192/55
f 33/193/56 43/194/56 52/195/56
f 32/196/57 8/197/57 46/198/57 49/199/57
f 7/200/58 34/201/58 51/202/58 45/203/58
f 8/204/59 31/205/59 48/206/59 46/207/59
f 31/208/60 7/209/60 45/210/60 48/211/60
f 22/212/61 33/213/61 50/214/61 47/215/61
f 47/216/62 50/217/62 58/218/62 55/219/62
f 49/220/62 46/221/62 54/222/62 57/223/62
f 48/224/62 45/225/62 53/226/62 56/227/62
f 50/228/63 52/229/63 60/230/63 58/231/63
f 51/232/62 47/233/62 55/234/62 59/235/62
f 52/236/64 49/237/64 57/238/64 60/239/64
f 45/240/62 51/241/62 59/242/62 53/243/62
f 46/244/62 48/245/62 56/246/62 54/247/62
f 60/248/65 57/249/65 65/250/65 68/251/65
f 53/252/66 59/253/66 67/254/66 61/255/66
f 54/256/67 56/257/67 64/258/67 62/259/67
f 55/260/68 58/261/68 66/262/68 63/263/68
f 57/264/69 54/265/69 62/266/69 65/267/69
f 56/268/70 53/269/70 61/270/70 64/271/70
f 58/272/71 60/273/71 68/274/71 66/275/71
f 59/276/72 55/277/72 63/278/72 67/279/72
f 63/280/62 66/281/62 68/282/62 65/283/62 62/284/62 64/285/62 61/286/62 67/287/62
f 43/288/73 32/289/73 52/290/73
f 50/291/74 33/292/74 52/293/74
f 106/294/75 107/295/75 82/296/75 77/297/75
f 28/298/76 33/299/76 70/300/76 75/301/76 72/302/76
f 33/303/77 22/304/77 69/305/77 73/306/77 70/307/77
f 22/308/78 6/309/78 71/310/78 74/311/78 69/312/78
f 102/313/79 105/314/79 81/315/79 78/316/79
f 103/317/80 104/318/80 80/319/80 84/320/80
f 101/321/81 102/322/81 78/323/81 83/324/81
f 108/325/82 103/326/82 84/327/82 79/328/82
f 107/329/83 108/330/83 79/331/83 82/332/83
f 104/333/84 101/334/84 83/335/84 80/336/84
f 105/337/85 106/338/85 77/339/85 81/340/85
f 78/341/86 81/342/86 89/343/86 86/344/86
f 83/345/87 78/346/87 86/347/87 91/348/87
f 80/349/88 83/350/88 91/351/88 88/352/88
f 81/353/89 77/354/89 85/355/89 89/356/89
f 82/357/90 79/358/90 87/359/90 90/360/90
f 79/361/91 84/362/91 92/363/91 87/364/91
f 84/365/92 80/366/92 88/367/92 92/368/92
f 77/369/93 82/370/93 90/371/93 85/372/93
f 92/373/94 88/374/94 96/375/94 100/376/94
f 85/377/95 90/378/95 98/379/95 93/380/95
f 86/381/96 89/382/96 97/383/96 94/384/96
f 91/385/97 86/386/97 94/387/97 99/388/97
f 88/389/98 91/390/98 99/391/98 96/392/98
f 89/393/99 85/394/99 93/395/99 97/396/99
f 90/397/100 87/398/100 95/399/100 98/400/100
f 87/401/101 92/402/101 100/403/101 95/404/101
f 73/405/102 69/406/102 106/407/102 105/408/102
f 72/409/103 75/410/103 101/411/103 104/412/103
f 74/413/104 71/414/104 108/415/104 107/416/104
f 71/417/105 76/418/105 103/419/105 108/420/105
f 75/421/106 70/422/106 102/423/106 101/424/106
f 76/425/107 72/426/107 104/427/107 103/428/107
f 70/429/108 73/430/108 105/431/108 102/432/108
f 69/433/109 74/434/109 107/435/109 106/436/109
f 100/437/110 96/438/110 99/439/110 94/440/110 97/441/110 93/442/110 98/443/110 95/444/110
