# Blender v2.82 (sub 7) OBJ File: 'trees.blend'
# www.blender.org
mtllib stump_3.mtl
o stump_3_Cylinder.007
v 0.306310 0.181299 -0.008071
v 0.299361 0.468695 -0.017676
v 0.184551 0.170642 0.220021
v 0.213695 0.478482 0.190211
v -0.025594 0.135302 0.316811
v -0.001909 0.503115 0.260952
v -0.257233 0.245181 0.224271
v -0.195805 0.525268 0.180221
v -0.366918 0.132331 0.013480
v -0.276119 0.534444 -0.014680
v -0.281460 0.162891 -0.214032
v -0.199935 0.525740 -0.225563
v -0.001421 0.199659 -0.359026
v 0.006880 0.502111 -0.311673
v 0.233060 0.239490 -0.262236
v 0.213695 0.478482 -0.225563
v 0.293863 0.389946 -0.014680
v 0.207210 0.389946 0.193798
v -0.001989 0.389946 0.280153
v -0.211189 0.389946 0.193798
v -0.297842 0.389946 -0.014680
v -0.211189 0.389946 -0.223158
v -0.001989 0.389946 -0.309512
v 0.207210 0.389946 -0.223158
v 0.363183 0.000000 -0.001755
v 0.205023 0.000000 0.367718
v -0.013886 0.000000 0.358913
v -0.277674 0.000000 0.252159
v -0.399089 0.000000 0.021805
v -0.262654 0.000000 -0.305174
v 0.035304 0.000000 -0.477312
v 0.256666 0.000000 -0.336730
v 0.195398 0.480573 0.171403
v 0.273328 0.471669 -0.017712
v -0.002286 0.503158 0.236283
v -0.178672 0.523311 0.162843
v -0.251734 0.531658 -0.014458
v -0.180880 0.523563 -0.206826
v 0.007259 0.502068 -0.285160
v 0.195398 0.480573 -0.206826
v -0.611422 0.000000 -0.139884
v -0.189043 0.000000 0.484417
v 0.501109 0.000000 -0.212238
v -0.380951 0.047549 -0.183742
v -0.465505 0.040345 -0.077340
v 0.364311 0.072353 -0.228118
v 0.394626 0.076310 -0.144539
v -0.200873 0.081470 0.345555
v -0.054584 0.073682 0.343260
v 0.278109 0.230451 0.043102
v 0.215220 0.224946 0.160911
v 0.226924 0.338217 0.147367
v 0.271680 0.338217 0.039688
v 0.245990 0.199417 0.104176
v 0.207299 0.280878 0.182991
v 0.288668 0.285038 0.012543
v 0.249977 0.366499 0.091358
v 0.427489 0.327825 0.159399
v 0.394185 0.325883 0.224176
v 0.376986 0.383591 0.203227
v 0.401922 0.380853 0.144844
v 0.416309 0.312685 0.196330
v 0.378134 0.354839 0.229460
v 0.422158 0.354237 0.136363
v 0.383982 0.396391 0.169493
v 0.290382 0.337093 0.172204
v 0.293399 0.295270 0.206405
v 0.299481 0.357587 0.125750
v 0.317186 0.255996 0.195874
v 0.363501 0.264615 0.104105
v 0.354752 0.302801 0.074274
v 0.348670 0.240484 0.154928
v 0.325233 0.338437 0.089174
v 0.422888 0.332319 0.163355
v 0.395188 0.330704 0.217233
v 0.380883 0.378703 0.199809
v 0.401623 0.376425 0.151249
v 0.413590 0.319727 0.194072
v 0.381837 0.354788 0.221628
v 0.418454 0.354287 0.144195
v 0.386702 0.389349 0.171750
v 0.406259 0.321737 0.158914
v 0.378559 0.320122 0.212792
v 0.364253 0.368121 0.195368
v 0.384994 0.365843 0.146809
v 0.396960 0.309145 0.189632
v 0.365208 0.344206 0.217187
v 0.401825 0.343705 0.139755
v 0.370073 0.378767 0.167310
v 0.185145 0.441246 0.171403
v 0.263075 0.432343 -0.017712
v -0.012538 0.463832 0.236283
v -0.188925 0.483984 0.162843
v -0.261986 0.492331 -0.014458
v -0.191133 0.484236 -0.206826
v -0.002994 0.462741 -0.285160
v 0.185145 0.441246 -0.206826
vt 0.737399 0.948533
vt 0.737399 0.932237
vt 0.704294 0.932237
vt 0.704294 0.948533
vt 0.955915 0.696912
vt 0.939619 0.696912
vt 0.939619 0.730017
vt 0.955915 0.730017
vt 0.905488 0.865001
vt 0.872383 0.865001
vt 0.872383 0.898106
vt 0.905488 0.898106
vt 0.905488 0.831383
vt 0.872383 0.831383
vt 0.872383 0.864488
vt 0.905488 0.864488
vt 0.905488 0.764148
vt 0.872383 0.764148
vt 0.872383 0.797252
vt 0.905488 0.797252
vt 0.871870 0.831383
vt 0.838766 0.831383
vt 0.838766 0.864488
vt 0.871870 0.864488
vt 0.771530 0.952735
vt 0.804635 0.952735
vt 0.804635 0.949046
vt 0.771530 0.949046
vt 0.955915 0.797765
vt 0.939619 0.797765
vt 0.939619 0.830870
vt 0.955915 0.830870
vt 0.771017 0.948533
vt 0.771017 0.932237
vt 0.737912 0.932237
vt 0.737912 0.948533
vt 0.871870 0.830870
vt 0.871870 0.764148
vt 0.838766 0.764148
vt 0.838766 0.830870
vt 0.905488 0.797765
vt 0.872383 0.797765
vt 0.872383 0.830870
vt 0.905488 0.830870
vt 0.939106 0.797765
vt 0.906001 0.797765
vt 0.906001 0.830870
vt 0.939106 0.830870
vt 0.871870 0.865001
vt 0.838766 0.865001
vt 0.838766 0.898106
vt 0.871870 0.898106
vt 0.771530 0.864488
vt 0.838252 0.864488
vt 0.838252 0.831383
vt 0.771530 0.831383
vt 0.939106 0.696912
vt 0.906001 0.696912
vt 0.906001 0.730017
vt 0.939106 0.730017
vt 0.737399 0.898619
vt 0.704294 0.898619
vt 0.704294 0.931724
vt 0.737399 0.931724
vt 0.771017 0.898619
vt 0.737912 0.898619
vt 0.737912 0.931724
vt 0.771017 0.931724
vt 0.955915 0.915428
vt 0.955915 0.948533
vt 0.948024 0.941136
vt 0.952338 0.932255
vt 0.948024 0.924038
vt 0.804635 0.898619
vt 0.771530 0.898619
vt 0.771530 0.931724
vt 0.804635 0.931724
vt 0.837996 0.865001
vt 0.771530 0.897849
vt 0.771530 0.865001
vt 0.905488 0.730786
vt 0.872640 0.763634
vt 0.905488 0.763634
vt 0.872640 0.948533
vt 0.888679 0.932493
vt 0.888679 0.948533
vt 0.704294 0.952735
vt 0.737399 0.952735
vt 0.737399 0.949046
vt 0.704294 0.949046
vt 0.838252 0.898619
vt 0.805148 0.898619
vt 0.805148 0.931724
vt 0.838252 0.931724
vt 0.871870 0.763634
vt 0.871870 0.696912
vt 0.838766 0.696912
vt 0.838766 0.763634
vt 0.871870 0.898619
vt 0.838766 0.898619
vt 0.838766 0.931724
vt 0.871870 0.931724
vt 0.955915 0.797252
vt 0.955915 0.764404
vt 0.939876 0.797252
vt 0.771017 0.952735
vt 0.771017 0.949046
vt 0.737912 0.949046
vt 0.737912 0.952735
vt 0.960117 0.764148
vt 0.956428 0.764148
vt 0.956428 0.797252
vt 0.960117 0.797252
vt 0.838252 0.952735
vt 0.838252 0.949046
vt 0.805148 0.949046
vt 0.805148 0.952735
vt 0.960117 0.730530
vt 0.956428 0.730530
vt 0.956428 0.763634
vt 0.960117 0.763634
vt 0.871870 0.952735
vt 0.871870 0.949046
vt 0.838766 0.949046
vt 0.838766 0.952735
vt 0.960117 0.696912
vt 0.956428 0.696912
vt 0.956428 0.730017
vt 0.960117 0.730017
vt 0.872640 0.730017
vt 0.905488 0.730017
vt 0.905488 0.697168
vt 0.872383 0.948276
vt 0.888423 0.932237
vt 0.872383 0.932237
vt 0.804635 0.948533
vt 0.804635 0.932493
vt 0.771787 0.948533
vt 0.955658 0.764148
vt 0.939619 0.764148
vt 0.939619 0.796996
vt 0.906258 0.763634
vt 0.939106 0.730786
vt 0.939106 0.763634
vt 0.939106 0.898619
vt 0.906001 0.898619
vt 0.906001 0.931724
vt 0.939106 0.931724
vt 0.905232 0.696912
vt 0.872383 0.729760
vt 0.872383 0.696912
vt 0.804378 0.932237
vt 0.771530 0.948276
vt 0.771530 0.932237
vt 0.939106 0.831383
vt 0.906001 0.831383
vt 0.906001 0.864488
vt 0.939106 0.864488
vt 0.905232 0.730530
vt 0.872383 0.763378
vt 0.872383 0.730530
vt 0.955915 0.730786
vt 0.939876 0.763634
vt 0.955915 0.763634
vt 0.939106 0.865001
vt 0.906001 0.865001
vt 0.906001 0.898106
vt 0.939106 0.898106
vt 0.906001 0.763378
vt 0.938849 0.730530
vt 0.906001 0.730530
vt 0.939619 0.763378
vt 0.955658 0.730530
vt 0.939619 0.730530
vt 0.939106 0.764148
vt 0.931215 0.764148
vt 0.931215 0.780443
vt 0.939106 0.780443
vt 0.838766 0.940128
vt 0.838766 0.932237
vt 0.871870 0.934198
vt 0.853771 0.936207
vt 0.871870 0.938274
vt 0.947510 0.831383
vt 0.947510 0.864488
vt 0.939619 0.857368
vt 0.943934 0.848336
vt 0.939619 0.840269
vt 0.805148 0.940128
vt 0.805148 0.932237
vt 0.838252 0.934427
vt 0.820153 0.936311
vt 0.838252 0.938503
vt 0.930702 0.764148
vt 0.922810 0.764148
vt 0.922810 0.780443
vt 0.930702 0.780443
vt 0.922297 0.780957
vt 0.914406 0.780957
vt 0.914406 0.797252
vt 0.922297 0.797252
vt 0.913893 0.780957
vt 0.906001 0.780957
vt 0.906001 0.797252
vt 0.913893 0.797252
vt 0.939106 0.780957
vt 0.931215 0.780957
vt 0.931215 0.797252
vt 0.939106 0.797252
vt 0.930702 0.780957
vt 0.922810 0.780957
vt 0.922810 0.797252
vt 0.930702 0.797252
vt 0.888679 0.898619
vt 0.880788 0.898619
vt 0.880788 0.914915
vt 0.888679 0.914915
vt 0.880275 0.898619
vt 0.872383 0.898619
vt 0.872383 0.914915
vt 0.880275 0.914915
vt 0.905488 0.898619
vt 0.897597 0.898619
vt 0.897597 0.914915
vt 0.905488 0.914915
vt 0.930702 0.940641
vt 0.922810 0.940641
vt 0.922810 0.948533
vt 0.930702 0.948533
vt 0.897084 0.898619
vt 0.889192 0.898619
vt 0.889192 0.914915
vt 0.897084 0.914915
vt 0.888679 0.915428
vt 0.880788 0.915428
vt 0.880788 0.931724
vt 0.888679 0.931724
vt 0.880275 0.915428
vt 0.872383 0.915428
vt 0.872383 0.931724
vt 0.880275 0.931724
vt 0.922297 0.772552
vt 0.914406 0.772552
vt 0.914406 0.780443
vt 0.922297 0.780443
vt 0.905488 0.915428
vt 0.897597 0.915428
vt 0.897597 0.931724
vt 0.905488 0.931724
vt 0.897084 0.915428
vt 0.889192 0.915428
vt 0.889192 0.931724
vt 0.897084 0.931724
vt 0.913893 0.772039
vt 0.913893 0.764148
vt 0.910204 0.764148
vt 0.910204 0.772039
vt 0.909690 0.772039
vt 0.909690 0.764148
vt 0.906001 0.764148
vt 0.906001 0.772039
vt 0.939106 0.940641
vt 0.935417 0.940641
vt 0.935417 0.944330
vt 0.939106 0.944330
vt 0.934904 0.940641
vt 0.931215 0.940641
vt 0.931215 0.944330
vt 0.934904 0.944330
vt 0.939106 0.936439
vt 0.935417 0.936439
vt 0.935417 0.940128
vt 0.939106 0.940128
vt 0.922297 0.772039
vt 0.922297 0.764148
vt 0.918608 0.764148
vt 0.918608 0.772039
vt 0.918095 0.772039
vt 0.918095 0.764148
vt 0.914406 0.764148
vt 0.914406 0.772039
vt 0.934904 0.936439
vt 0.931215 0.936439
vt 0.931215 0.940128
vt 0.934904 0.940128
vt 0.939106 0.932237
vt 0.935417 0.932237
vt 0.935417 0.935926
vt 0.939106 0.935926
vt 0.913893 0.780443
vt 0.913893 0.772552
vt 0.910204 0.772552
vt 0.910204 0.780443
vt 0.934904 0.932237
vt 0.931215 0.932237
vt 0.931215 0.935926
vt 0.934904 0.935926
vt 0.930702 0.936439
vt 0.927013 0.936439
vt 0.927013 0.940128
vt 0.930702 0.940128
vt 0.926499 0.936439
vt 0.922810 0.936439
vt 0.922810 0.940128
vt 0.926499 0.940128
vt 0.909690 0.780443
vt 0.909690 0.772552
vt 0.906001 0.772552
vt 0.906001 0.780443
vt 0.930702 0.932237
vt 0.927013 0.932237
vt 0.927013 0.935926
vt 0.930702 0.935926
vt 0.926499 0.932237
vt 0.922810 0.932237
vt 0.922810 0.935926
vt 0.926499 0.935926
vt 0.289461 0.177409
vt 0.283405 0.173465
vt 0.282590 0.166748
vt 0.286568 0.161226
vt 0.293645 0.161217
vt 0.298886 0.165274
vt 0.298886 0.172103
vt 0.295723 0.177513
vt 0.947510 0.914915
vt 0.947510 0.881810
vt 0.939619 0.881810
vt 0.939619 0.914915
vt 0.889192 0.940128
vt 0.922297 0.940128
vt 0.922297 0.932237
vt 0.889192 0.932237
vt 0.955915 0.864488
vt 0.955915 0.831383
vt 0.948024 0.831383
vt 0.948024 0.864488
vt 0.805148 0.948533
vt 0.838252 0.948533
vt 0.838252 0.940641
vt 0.805148 0.940641
vt 0.955915 0.914915
vt 0.955915 0.881810
vt 0.948024 0.881810
vt 0.948024 0.914915
vt 0.838766 0.948533
vt 0.871870 0.948533
vt 0.871870 0.940641
vt 0.838766 0.940641
vt 0.947510 0.948533
vt 0.947510 0.915428
vt 0.939619 0.915428
vt 0.939619 0.948533
vt 0.889192 0.948533
vt 0.922297 0.948533
vt 0.922297 0.940641
vt 0.889192 0.940641
vt 0.095296 0.194322
vt 0.067160 0.194322
vt 0.047265 0.174779
vt 0.047265 0.147142
vt 0.067160 0.127599
vt 0.095335 0.128655
vt 0.113988 0.146976
vt 0.113988 0.172887
vt 0.704294 0.760922
vt 0.721946 0.735972
vt 0.717051 0.707902
vt 0.757013 0.711790
vt 0.799156 0.711744
vt 0.838252 0.696912
vt 0.835859 0.747630
vt 0.838252 0.792850
vt 0.801508 0.810024
vt 0.765345 0.830870
vt 0.745469 0.801936
vn 0.9224 -0.0510 0.3829
vn 0.3501 0.0939 0.9320
vn -0.3721 0.1441 0.9169
vn -0.9138 0.1397 0.3814
vn -0.9262 0.1059 -0.3618
vn -0.3822 0.0140 -0.9240
vn 0.1135 0.9935 0.0000
vn 0.3800 -0.0501 -0.9236
vn 0.9205 -0.0783 -0.3828
vn -0.4620 0.3895 -0.7968
vn 0.9422 0.1285 -0.3095
vn 0.3482 0.2611 -0.9003
vn -0.4318 0.1581 -0.8880
vn -0.9096 0.2352 -0.3426
vn -0.8916 0.3040 0.3357
vn -0.3219 0.2112 0.9229
vn 0.3930 0.0831 0.9158
vn 0.9234 0.0074 0.3838
vn 0.1277 0.5325 0.8367
vn -0.2685 0.7790 -0.5666
vn 0.6914 0.5628 0.4530
vn -0.8449 0.4269 0.3224
vn -0.8904 0.1648 0.4243
vn 0.8422 0.3605 0.4009
vn 0.3916 0.4144 -0.8215
vn -0.7651 0.2240 0.6037
vn 0.0538 0.8633 0.5019
vn 0.1973 0.3068 0.9311
vn -0.2208 0.9691 -0.1099
vn 0.4760 0.8532 -0.2131
vn 0.5735 0.2943 -0.7645
vn -0.6604 0.7058 -0.2564
vn -0.6066 0.3337 -0.7216
vn -0.4375 0.6917 0.5746
vn 0.7486 0.6511 -0.1250
vn 0.3783 0.5523 -0.7429
vn 0.8897 0.2913 0.3516
vn -0.0302 0.5455 0.8376
vn -0.8190 0.1318 0.5585
vn 0.5221 0.4432 0.7287
vn 0.7672 -0.2977 -0.5681
vn 0.8998 0.0673 0.4312
vn 0.8818 0.0151 0.4714
vn 0.9020 -0.0418 0.4296
vn -0.0862 -0.2725 0.9583
vn -0.5148 0.8235 0.2386
vn -0.5358 0.5307 0.6567
vn 0.7421 -0.6657 -0.0779
vn 0.2977 0.5349 -0.7907
vn -0.0898 0.8377 -0.5387
vn 0.3955 -0.6964 0.5988
vn 0.1232 -0.8844 0.4501
vn 0.3248 0.8948 -0.3063
vn 0.5110 0.5715 -0.6421
vn 0.4730 -0.8527 -0.2219
vn -0.2959 0.5826 0.7570
vn -0.1257 0.9105 0.3940
vn -0.1912 -0.3745 0.9073
vn 0.6537 -0.4218 -0.6283
vn 0.7923 0.4840 0.3715
vn 0.7927 0.4411 0.4208
vn 0.8332 0.3905 0.3915
vn 0.8368 0.4313 0.3372
vn 0.2777 -0.7085 0.6487
vn 0.5274 -0.5611 -0.6380
vn -0.3109 0.7392 -0.5974
vn -0.0408 -0.3314 0.9426
vn -0.5080 0.5057 0.6973
vn -0.5603 0.8120 0.1633
vn 0.1077 0.2360 -0.9658
vn 0.5626 -0.8049 -0.1887
vn 0.8142 0.4370 0.3822
vn 0.9084 -0.2368 0.3446
vn 0.3731 -0.0973 -0.9227
vn -0.8951 0.2334 -0.3798
vn -0.8951 0.2334 0.3798
vn 0.3731 -0.0973 0.9227
vn 0.8951 -0.2334 -0.3798
vn -0.3027 0.0789 -0.9498
vn -0.3731 0.0973 0.9227
vn 0.0000 -1.0000 -0.0000
usemtl Lp_trees_texture_atlas
s off
f 17/1/1 2/2/1 4/3/1 18/4/1
f 18/5/2 4/6/2 6/7/2 19/8/2
f 19/9/3 6/10/3 8/11/3 20/12/3
f 20/13/4 8/14/4 10/15/4 21/16/4
f 21/17/5 10/18/5 12/19/5 22/20/5
f 22/21/6 12/22/6 14/23/6 23/24/6
f 6/25/7 4/26/7 33/27/7 35/28/7
f 23/29/8 14/30/8 16/31/8 24/32/8
f 24/33/9 16/34/9 2/35/9 17/36/9
f 11/37/10 13/38/10 31/39/10 30/40/10
f 15/41/11 24/42/11 17/43/11 1/44/11
f 13/45/12 23/46/12 24/47/12 15/48/12
f 11/49/13 22/50/13 23/51/13 13/52/13
f 9/53/14 21/54/14 22/55/14 11/56/14
f 7/57/15 20/58/15 21/59/15 9/60/15
f 5/61/16 19/62/16 20/63/16 7/64/16
f 3/65/17 18/66/17 19/67/17 5/68/17
f 17/69/18 18/70/18 52/71/18 57/72/18 53/73/18
f 3/74/19 5/75/19 27/76/19 26/77/19
f 30/78/20 41/79/20 44/80/20
f 25/81/21 43/82/21 47/83/21
f 28/84/22 42/85/22 48/86/22
f 8/87/7 6/88/7 35/89/7 36/90/7
f 7/91/23 9/92/23 29/93/23 28/94/23
f 1/95/24 3/96/24 26/97/24 25/98/24
f 15/99/25 32/100/25 31/101/25 13/102/25
f 29/103/26 9/104/26 45/105/26
f 8/106/7 36/107/7 37/108/7 10/109/7
f 12/110/7 38/111/7 39/112/7 14/113/7
f 16/114/7 40/115/7 34/116/7 2/117/7
f 2/118/7 34/119/7 33/120/7 4/121/7
f 14/122/7 39/123/7 40/124/7 16/125/7
f 10/126/7 37/127/7 38/128/7 12/129/7
f 49/130/27 48/131/27 42/132/27
f 27/133/28 5/134/28 49/135/28
f 45/136/29 44/137/29 41/138/29
f 46/139/30 47/140/30 43/141/30
f 32/142/31 15/143/31 46/144/31
f 9/145/32 11/146/32 44/147/32 45/148/32
f 11/149/33 30/150/33 44/151/33
f 41/152/34 29/153/34 45/154/34
f 15/155/35 1/156/35 47/157/35 46/158/35
f 43/159/36 32/160/36 46/161/36
f 1/162/37 25/163/37 47/164/37
f 5/165/38 7/166/38 48/167/38 49/168/38
f 7/169/39 28/170/39 48/171/39
f 42/172/40 27/173/40 49/174/40
f 70/175/41 71/176/41 64/177/41 58/178/41
f 1/179/42 17/180/42 53/181/42 56/182/42 50/183/42
f 3/184/43 1/185/43 50/186/43 54/187/43 51/188/43
f 18/189/44 3/190/44 51/191/44 55/192/44 52/193/44
f 67/194/45 69/195/45 59/196/45 63/197/45
f 68/198/46 66/199/46 60/200/46 65/201/46
f 66/202/47 67/203/47 63/204/47 60/205/47
f 72/206/48 70/207/48 58/208/48 62/209/48
f 71/210/49 73/211/49 61/212/49 64/213/49
f 73/214/50 68/215/50 65/216/50 61/217/50
f 69/218/51 72/219/51 62/220/51 59/221/51
f 51/222/52 54/223/52 72/224/52 69/225/52
f 53/226/53 57/227/53 68/228/53 73/229/53
f 56/230/54 53/231/54 73/232/54 71/233/54
f 54/234/55 50/235/55 70/236/55 72/237/55
f 52/238/56 55/239/56 67/240/56 66/241/56
f 57/242/57 52/243/57 66/244/57 68/245/57
f 55/246/58 51/247/58 69/248/58 67/249/58
f 50/250/59 56/251/59 71/252/59 70/253/59
f 58/254/60 64/255/60 80/256/60 74/257/60
f 62/258/61 58/259/61 74/260/61 78/261/61
f 63/262/62 59/263/62 75/264/62 79/265/62
f 65/266/63 60/267/63 76/268/63 81/269/63
f 61/270/63 65/271/63 81/272/63 77/273/63
f 60/274/62 63/275/62 79/276/62 76/277/62
f 59/278/61 62/279/61 78/280/61 75/281/61
f 64/282/60 61/283/60 77/284/60 80/285/60
f 77/286/64 81/287/64 89/288/64 85/289/64
f 76/290/65 79/291/65 87/292/65 84/293/65
f 75/294/66 78/295/66 86/296/66 83/297/66
f 80/298/67 77/299/67 85/300/67 88/301/67
f 74/302/68 80/303/68 88/304/68 82/305/68
f 78/306/69 74/307/69 82/308/69 86/309/69
f 79/310/70 75/311/70 83/312/70 87/313/70
f 81/314/71 76/315/71 84/316/71 89/317/71
f 84/318/72 87/319/72 83/320/72 86/321/72 82/322/72 88/323/72 85/324/72 89/325/72
f 38/326/73 37/327/73 94/328/73 95/329/73
f 36/330/74 35/331/74 92/332/74 93/333/74
f 33/334/75 34/335/75 91/336/75 90/337/75
f 34/338/76 40/339/76 97/340/76 91/341/76
f 39/342/77 38/343/77 95/344/77 96/345/77
f 37/346/78 36/347/78 93/348/78 94/349/78
f 35/350/79 33/351/79 90/352/79 92/353/79
f 40/354/80 39/355/80 96/356/80 97/357/80
f 90/358/7 91/359/7 97/360/7 96/361/7 95/362/7 94/363/7 93/364/7 92/365/7
f 26/366/81 27/367/81 42/368/81 28/369/81 29/370/81 41/371/81 30/372/81 31/373/81 32/374/81 43/375/81 25/376/81
