# Blender v2.82 (sub 7) OBJ File: 'trees.blend'
# www.blender.org
mtllib stump_1.mtl
o stump_1_Cylinder.005
v -0.024744 0.145810 -0.176591
v -0.001701 0.389773 -0.171918
v 0.118765 0.145810 -0.118765
v 0.116317 0.394483 -0.123034
v 0.167959 0.108010 0.000000
v 0.156477 0.369164 0.000000
v 0.118765 0.116992 0.141577
v 0.110646 0.369164 0.110646
v -0.000000 0.132306 0.175767
v -0.000000 0.364454 0.156477
v -0.118765 0.108010 0.118765
v -0.119719 0.389773 0.113003
v -0.175538 0.108740 -0.000000
v -0.168604 0.389773 -0.005015
v -0.126344 0.108740 -0.118765
v -0.119719 0.389773 -0.123034
v -0.000000 0.254705 -0.153221
v 0.108343 0.254705 -0.108343
v 0.153220 0.254705 0.000000
v 0.108343 0.254705 0.108343
v -0.000000 0.254705 0.153220
v -0.108343 0.254705 0.108343
v -0.153221 0.254705 -0.000000
v -0.108343 0.254705 -0.108343
v -0.021521 0.000000 -0.186191
v 0.144596 0.000000 -0.144596
v 0.260008 0.000000 0.015744
v 0.139625 0.000000 0.137139
v -0.000000 0.000000 0.204490
v -0.181056 0.000000 0.175255
v -0.204490 0.000000 -0.000000
v -0.122730 0.000000 -0.134239
v 0.097161 0.394483 -0.103878
v -0.001701 0.389773 -0.144828
v 0.131079 0.369164 -0.000000
v 0.092687 0.369164 0.092687
v -0.000000 0.364454 0.131079
v -0.100563 0.389773 0.093847
v -0.141513 0.389773 -0.005015
v -0.100563 0.389773 -0.103878
v 0.092687 0.367666 -0.092687
v -0.000000 0.367666 -0.131079
v 0.131079 0.351720 -0.000000
v 0.092687 0.351720 0.092687
v -0.000000 0.367666 0.131079
v -0.092687 0.367666 0.092687
v -0.131079 0.367666 -0.000000
v -0.092687 0.367666 -0.092687
v 0.105293 0.076862 0.189948
v 0.051678 0.076862 0.224172
v 0.124248 0.000000 0.202552
v 0.055466 0.000000 0.234534
v 0.172134 0.020421 0.276620
v 0.159205 0.020421 0.288500
v 0.176659 0.000000 0.278722
v 0.160918 0.000000 0.293186
v 0.117881 0.010709 -0.332821
v 0.133695 0.010709 -0.331361
v 0.116545 0.000000 -0.337132
v 0.135798 0.000000 -0.335354
v -0.350892 0.006566 -0.156464
v -0.344766 0.006566 -0.171253
v -0.355440 0.000000 -0.156464
v -0.347983 0.000000 -0.174469
v -0.220938 0.034652 -0.117497
v -0.259976 0.034652 -0.066793
v -0.215749 0.000000 -0.125435
v -0.258579 0.000000 -0.045502
v 0.108464 0.080968 -0.195702
v 0.056947 0.080968 -0.227254
v 0.051989 0.000000 -0.242877
v 0.119423 0.000000 -0.211790
v 0.008126 0.385169 0.156637
v 0.106095 0.385169 0.116057
v -0.176512 0.410488 0.002993
v -0.131735 0.410488 0.111095
v -0.011084 0.410488 -0.178720
v -0.117446 0.410488 -0.134664
v 0.008126 0.385169 0.134149
v 0.090193 0.385169 0.100156
v -0.151698 0.410488 0.002993
v -0.114188 0.410488 0.093549
v -0.011084 0.410488 -0.154305
v -0.100182 0.410488 -0.117400
v 0.115402 0.412571 -0.130872
v 0.007430 0.412571 -0.175596
v -0.118240 0.411214 0.121160
v -0.007228 0.387736 0.161472
v -0.130475 0.412571 -0.121284
v -0.176203 0.412571 -0.010889
v 0.097877 0.412571 -0.113346
v 0.007430 0.412571 -0.150811
v -0.100477 0.411214 0.103398
v -0.007228 0.387736 0.137921
v -0.112557 0.412571 -0.103366
v -0.150862 0.412571 -0.010889
vt 0.734857 0.917250
vt 0.704623 0.917250
vt 0.704623 0.947485
vt 0.734857 0.947485
vt 0.827038 0.886523
vt 0.796803 0.886523
vt 0.796803 0.916758
vt 0.827038 0.916758
vt 0.919219 0.794343
vt 0.888984 0.794343
vt 0.888984 0.824577
vt 0.919219 0.824577
vt 0.796311 0.886523
vt 0.766076 0.886523
vt 0.766076 0.916758
vt 0.796311 0.916758
vt 0.857765 0.855796
vt 0.827530 0.855796
vt 0.827530 0.886031
vt 0.857765 0.886031
vt 0.827038 0.855796
vt 0.796803 0.855796
vt 0.796803 0.886031
vt 0.827038 0.886031
vt 0.842894 0.939803
vt 0.873128 0.939803
vt 0.873128 0.932613
vt 0.842894 0.932613
vt 0.796311 0.855796
vt 0.766076 0.855796
vt 0.766076 0.886031
vt 0.796311 0.886031
vt 0.888492 0.763616
vt 0.858257 0.763616
vt 0.858257 0.793850
vt 0.888492 0.793850
vt 0.888492 0.763124
vt 0.888492 0.702162
vt 0.858257 0.702162
vt 0.858257 0.763124
vt 0.888492 0.794343
vt 0.858257 0.794343
vt 0.858257 0.824577
vt 0.888492 0.824577
vt 0.888492 0.825069
vt 0.858257 0.825069
vt 0.858257 0.855304
vt 0.888492 0.855304
vt 0.888492 0.886523
vt 0.858257 0.886523
vt 0.858257 0.916758
vt 0.888492 0.916758
vt 0.888492 0.855796
vt 0.858257 0.855796
vt 0.858257 0.886031
vt 0.888492 0.886031
vt 0.734857 0.886523
vt 0.704623 0.886523
vt 0.704623 0.916758
vt 0.734857 0.916758
vt 0.919219 0.702162
vt 0.888984 0.702162
vt 0.888984 0.732397
vt 0.919219 0.732397
vt 0.919219 0.732889
vt 0.888984 0.732889
vt 0.888984 0.763124
vt 0.919219 0.763124
vt 0.765584 0.886523
vt 0.735350 0.886523
vt 0.735350 0.916758
vt 0.765584 0.916758
vt 0.796803 0.932121
vt 0.827038 0.932121
vt 0.827038 0.917250
vt 0.796803 0.917250
vt 0.934582 0.763616
vt 0.919711 0.763616
vt 0.919711 0.793850
vt 0.934582 0.793850
vt 0.766076 0.855304
vt 0.827038 0.855304
vt 0.827038 0.825069
vt 0.766076 0.825069
vt 0.857765 0.763124
vt 0.857765 0.702162
vt 0.827530 0.702162
vt 0.827530 0.763124
vt 0.919219 0.825069
vt 0.888984 0.825069
vt 0.888984 0.855304
vt 0.919219 0.855304
vt 0.842401 0.939803
vt 0.842401 0.932613
vt 0.812167 0.932613
vt 0.812167 0.939803
vt 0.857765 0.824577
vt 0.857765 0.763616
vt 0.827530 0.763616
vt 0.827530 0.824577
vt 0.904347 0.943644
vt 0.934582 0.943644
vt 0.934582 0.940295
vt 0.904347 0.940295
vt 0.942264 0.886031
vt 0.942264 0.855796
vt 0.935074 0.855796
vt 0.935074 0.886031
vt 0.935074 0.935962
vt 0.942264 0.935962
vt 0.942264 0.932613
vt 0.935074 0.932613
vt 0.942264 0.916758
vt 0.942264 0.886523
vt 0.935074 0.886523
vt 0.935074 0.916758
vt 0.888984 0.924440
vt 0.919219 0.924440
vt 0.919219 0.917250
vt 0.888984 0.917250
vt 0.942264 0.855304
vt 0.942264 0.825069
vt 0.935074 0.825069
vt 0.935074 0.855304
vt 0.949946 0.924932
vt 0.942756 0.924932
vt 0.942756 0.932121
vt 0.949946 0.932121
vt 0.942264 0.924932
vt 0.935074 0.924932
vt 0.935074 0.932121
vt 0.942264 0.932121
vt 0.174208 0.192090
vt 0.149050 0.192090
vt 0.131260 0.174235
vt 0.131260 0.148984
vt 0.149050 0.131129
vt 0.174208 0.131129
vt 0.192222 0.148984
vt 0.192222 0.174235
vt 0.873620 0.943644
vt 0.903855 0.943644
vt 0.903855 0.940295
vt 0.873620 0.940295
vt 0.942264 0.793850
vt 0.942264 0.763616
vt 0.935074 0.763616
vt 0.935074 0.793850
vt 0.858257 0.932121
vt 0.888492 0.932121
vt 0.888492 0.924932
vt 0.858257 0.924932
vt 0.942264 0.763124
vt 0.942264 0.732889
vt 0.935074 0.732889
vt 0.935074 0.763124
vt 0.873620 0.947485
vt 0.903855 0.947485
vt 0.903855 0.944136
vt 0.873620 0.944136
vt 0.926900 0.916758
vt 0.926900 0.886523
vt 0.919711 0.886523
vt 0.919711 0.916758
vt 0.858257 0.924440
vt 0.888492 0.924440
vt 0.888492 0.917250
vt 0.858257 0.917250
vt 0.934582 0.855796
vt 0.919711 0.855796
vt 0.919711 0.886031
vt 0.934582 0.886031
vt 0.827530 0.932121
vt 0.857765 0.932121
vt 0.857765 0.917250
vt 0.827530 0.917250
vt 0.919219 0.886523
vt 0.888984 0.886523
vt 0.888984 0.916758
vt 0.919219 0.916758
vt 0.949946 0.917250
vt 0.942756 0.917250
vt 0.942756 0.924440
vt 0.949946 0.924440
vt 0.934582 0.732889
vt 0.919711 0.732889
vt 0.919711 0.763124
vt 0.934582 0.763124
vt 0.796311 0.932121
vt 0.796311 0.917250
vt 0.766076 0.917250
vt 0.766076 0.932121
vt 0.934582 0.825069
vt 0.919711 0.825069
vt 0.919711 0.855304
vt 0.934582 0.855304
vt 0.765584 0.932121
vt 0.765584 0.917250
vt 0.735350 0.917250
vt 0.735350 0.932121
vt 0.938423 0.936454
vt 0.935074 0.936454
vt 0.935074 0.939803
vt 0.938423 0.939803
vt 0.942264 0.794343
vt 0.935074 0.794343
vt 0.935074 0.824577
vt 0.942264 0.824577
vt 0.796311 0.939803
vt 0.796311 0.932613
vt 0.766076 0.932613
vt 0.766076 0.939803
vt 0.919219 0.855796
vt 0.888984 0.855796
vt 0.888984 0.886031
vt 0.919219 0.886031
vt 0.934582 0.794343
vt 0.919711 0.794343
vt 0.919711 0.824577
vt 0.934582 0.824577
vt 0.857765 0.886523
vt 0.827530 0.886523
vt 0.827530 0.916758
vt 0.857765 0.916758
vt 0.919219 0.763616
vt 0.888984 0.763616
vt 0.888984 0.793850
vt 0.919219 0.793850
vt 0.827038 0.778766
vt 0.790982 0.793660
vt 0.782479 0.804995
vt 0.788100 0.822896
vt 0.783495 0.824577
vt 0.764797 0.806441
vt 0.754899 0.797054
vt 0.717212 0.779422
vt 0.725726 0.744732
vt 0.717339 0.732515
vt 0.704623 0.705066
vt 0.707675 0.702162
vt 0.733037 0.720271
vt 0.754259 0.724827
vt 0.780659 0.721775
vt 0.801314 0.715976
vt 0.822927 0.702479
vt 0.827038 0.704102
vt 0.813773 0.726361
vt 0.814083 0.740744
vt 0.857765 0.825069
vt 0.827530 0.825069
vt 0.827530 0.855304
vt 0.857765 0.855304
vt 0.949946 0.702162
vt 0.919711 0.702162
vt 0.919711 0.732397
vt 0.949946 0.732397
vt 0.873620 0.939803
vt 0.903855 0.939803
vt 0.903855 0.932613
vt 0.873620 0.932613
vt 0.949946 0.763124
vt 0.949946 0.732889
vt 0.942756 0.732889
vt 0.942756 0.763124
vt 0.904347 0.939803
vt 0.934582 0.939803
vt 0.934582 0.932613
vt 0.904347 0.932613
vt 0.942264 0.917250
vt 0.935074 0.917250
vt 0.935074 0.924440
vt 0.942264 0.924440
vt 0.949946 0.793850
vt 0.949946 0.763616
vt 0.942756 0.763616
vt 0.942756 0.793850
vt 0.934582 0.924932
vt 0.927392 0.924932
vt 0.927392 0.932121
vt 0.934582 0.932121
vt 0.735350 0.947485
vt 0.765584 0.947485
vt 0.765584 0.940295
vt 0.735350 0.940295
vt 0.926900 0.924932
vt 0.919711 0.924932
vt 0.919711 0.932121
vt 0.926900 0.932121
vt 0.949946 0.824577
vt 0.949946 0.794343
vt 0.942756 0.794343
vt 0.942756 0.824577
vt 0.766076 0.947485
vt 0.796311 0.947485
vt 0.796311 0.940295
vt 0.766076 0.940295
vt 0.934582 0.917250
vt 0.927392 0.917250
vt 0.927392 0.924440
vt 0.934582 0.924440
vt 0.949946 0.855304
vt 0.949946 0.825069
vt 0.942756 0.825069
vt 0.942756 0.855304
vt 0.812167 0.947485
vt 0.842401 0.947485
vt 0.842401 0.940295
vt 0.812167 0.940295
vt 0.949946 0.886031
vt 0.949946 0.855796
vt 0.942756 0.855796
vt 0.942756 0.886031
vt 0.842894 0.947485
vt 0.873128 0.947485
vt 0.873128 0.940295
vt 0.842894 0.940295
vt 0.926900 0.917250
vt 0.919711 0.917250
vt 0.919711 0.924440
vt 0.926900 0.924440
vt 0.811675 0.940295
vt 0.804485 0.940295
vt 0.804485 0.947485
vt 0.811675 0.947485
vt 0.803993 0.940295
vt 0.796803 0.940295
vt 0.796803 0.947485
vt 0.803993 0.947485
vt 0.949946 0.916758
vt 0.949946 0.886523
vt 0.942756 0.886523
vt 0.942756 0.916758
vt 0.811675 0.932613
vt 0.804485 0.932613
vt 0.804485 0.939803
vt 0.811675 0.939803
vt 0.735350 0.939803
vt 0.765584 0.939803
vt 0.765584 0.932613
vt 0.735350 0.932613
vt 0.934582 0.916758
vt 0.934582 0.886523
vt 0.927392 0.886523
vt 0.927392 0.916758
vt 0.803993 0.932613
vt 0.796803 0.932613
vt 0.796803 0.939803
vt 0.803993 0.939803
vt 0.888984 0.932121
vt 0.919219 0.932121
vt 0.919219 0.924932
vt 0.888984 0.924932
vt 0.749488 0.845787
vt 0.718671 0.845787
vt 0.718671 0.876604
vt 0.749488 0.876604
vn 0.3820 -0.1200 -0.9163
vn 0.9346 -0.0615 -0.3502
vn 0.9236 -0.0263 0.3826
vn 0.3830 -0.0268 0.9233
vn -0.3654 -0.0470 0.9297
vn -0.9201 -0.0906 0.3811
vn 0.0823 0.9781 0.1914
vn -0.9174 -0.1186 -0.3800
vn -0.3794 -0.1316 -0.9158
vn -0.8712 0.4290 0.2387
vn -0.4584 0.1919 -0.8678
vn -0.9148 0.1399 -0.3789
vn -0.9065 0.1159 0.4061
vn -0.4172 0.1264 0.9000
vn 0.3341 0.2104 0.9188
vn 0.9303 0.1227 0.3457
vn 0.9248 0.1059 -0.3654
vn 0.3750 0.1180 -0.9195
vn -0.5342 0.1459 0.8327
vn -0.1750 0.9771 -0.1207
vn 0.8138 0.3949 -0.4264
vn -0.2838 0.3850 0.8782
vn -0.4850 0.0728 -0.8715
vn 0.2128 0.8754 -0.4340
vn 0.7722 0.4118 0.4839
vn 0.3802 0.2137 -0.8999
vn 0.4031 0.3710 -0.8366
vn 0.6472 0.4029 -0.6472
vn -0.3586 0.4043 0.8414
vn 0.0000 1.0000 0.0000
vn 0.3287 0.5120 0.7936
vn -0.9309 0.3652 0.0000
vn 0.9550 0.2965 0.0000
vn 0.0518 0.9984 0.0215
vn -0.9239 0.0000 -0.3827
vn -0.3527 0.4408 0.8254
vn 0.3276 0.5170 0.7908
vn 0.8722 0.3297 -0.3613
vn -0.3827 0.0000 -0.9239
vn -0.9088 0.1863 0.3734
vn 0.8187 0.4634 0.3391
vn -0.4755 0.1082 0.8731
vn 0.9294 0.2038 0.3075
vn 0.3055 0.7350 0.6053
vn 0.6600 0.2202 0.7183
vn 0.2568 0.8925 0.3707
vn 0.8199 0.1130 -0.5612
vn -0.8037 0.1786 -0.5676
vn 0.9854 0.1124 0.1277
vn -0.7781 0.5391 -0.3223
vn 0.3348 0.2610 -0.9054
vn -0.7041 0.3677 0.6075
vn -0.6847 0.2341 0.6902
vn -0.1132 0.1533 -0.9817
vn -0.5472 0.7871 -0.2849
vn 0.9235 0.2092 -0.3214
vn 0.0000 -1.0000 0.0000
vn -0.5384 0.0972 -0.8371
vn 0.2769 0.7471 -0.6043
vn 0.6387 0.4292 0.6387
vn -0.3454 -0.4303 -0.8340
vn 0.0000 0.3606 -0.9327
vn 0.7915 0.5158 -0.3278
vn -0.6388 0.4287 0.6388
vn -0.8261 -0.4477 0.3422
vn 0.3802 -0.1748 0.9082
vn 0.9109 0.4126 0.0000
vn -0.3711 0.3083 -0.8759
vn 0.1941 0.9774 0.0835
vn -0.6739 0.3029 -0.6739
vn 0.6690 0.3237 0.6690
vn 0.0000 0.2495 0.9684
vn -0.8559 -0.3766 -0.3545
vn 0.6593 0.3616 -0.6593
vn -0.3814 -0.3056 0.8724
vn 0.8337 0.4308 0.3453
vn -0.9283 0.3718 0.0000
vn 0.3683 -0.3199 -0.8730
vn 0.0857 0.3628 -0.9279
usemtl Lp_trees_texture_atlas
s off
f 17/1/1 2/2/1 4/3/1 18/4/1
f 18/5/2 4/6/2 6/7/2 19/8/2
f 19/9/3 6/10/3 8/11/3 20/12/3
f 20/13/4 8/14/4 10/15/4 21/16/4
f 21/17/5 10/18/5 12/19/5 22/20/5
f 22/21/6 12/22/6 14/23/6 23/24/6
f 6/25/7 4/26/7 33/27/7 35/28/7
f 23/29/8 14/30/8 16/31/8 24/32/8
f 24/33/9 16/34/9 2/35/9 17/36/9
f 11/37/10 13/38/10 31/39/10 30/40/10
f 15/41/11 24/42/11 17/43/11 1/44/11
f 13/45/12 23/46/12 24/47/12 15/48/12
f 11/49/13 22/50/13 23/51/13 13/52/13
f 9/53/14 21/54/14 22/55/14 11/56/14
f 7/57/15 20/58/15 21/59/15 9/60/15
f 5/61/16 19/62/16 20/63/16 7/64/16
f 3/65/17 18/66/17 19/67/17 5/68/17
f 1/69/18 17/70/18 18/71/18 3/72/18
f 9/73/19 29/74/19 52/75/19 50/76/19
f 66/77/20 65/78/20 62/79/20 61/80/20
f 3/81/21 5/82/21 27/83/21 26/84/21
f 9/85/22 11/86/22 30/87/22 29/88/22
f 15/89/23 1/90/23 25/91/23 32/92/23
f 70/93/24 69/94/24 58/95/24 57/96/24
f 5/97/25 7/98/25 28/99/25 27/100/25
f 38/101/26 37/102/26 45/103/26 46/104/26
f 37/105/27 38/106/27 93/107/27 94/108/27
f 8/109/28 36/110/28 80/111/28 74/112/28
f 34/113/29 33/114/29 91/115/29 92/116/29
f 8/117/30 6/118/30 35/119/30 36/120/30
f 40/121/31 34/122/31 83/123/31 84/124/31
f 37/125/32 10/126/32 73/127/32 79/128/32
f 10/129/33 37/130/33 94/131/33 88/132/33
f 41/133/34 42/134/34 48/135/34 47/136/34 46/137/34 45/138/34 44/139/34 43/140/34
f 36/141/35 35/142/35 43/143/35 44/144/35
f 33/145/36 34/146/36 42/147/36 41/148/36
f 34/149/37 40/150/37 48/151/37 42/152/37
f 39/153/38 38/154/38 46/155/38 47/156/38
f 37/157/39 36/158/39 44/159/39 45/160/39
f 35/161/40 33/162/40 41/163/40 43/164/40
f 40/165/41 39/166/41 47/167/41 48/168/41
f 50/169/42 52/170/42 56/171/42 54/172/42
f 28/173/43 7/174/43 49/175/43 51/176/43
f 7/177/44 9/178/44 50/179/44 49/180/44
f 53/181/45 54/182/45 56/183/45 55/184/45
f 49/185/46 50/186/46 54/187/46 53/188/46
f 51/189/47 49/190/47 53/191/47 55/192/47
f 71/193/48 70/194/48 57/195/48 59/196/48
f 69/197/49 72/198/49 60/199/49 58/200/49
f 61/201/50 62/202/50 64/203/50 63/204/50
f 65/205/51 67/206/51 64/207/51 62/208/51
f 68/209/52 66/210/52 61/211/52 63/212/52
f 31/213/53 13/214/53 66/215/53 68/216/53
f 15/217/54 32/218/54 67/219/54 65/220/54
f 13/221/55 15/222/55 65/223/55 66/224/55
f 3/225/56 26/226/56 72/227/56 69/228/56
f 27/229/57 28/230/57 51/231/57 55/232/57 56/233/57 52/234/57 29/235/57 30/236/57 31/237/57 68/238/57 63/239/57 64/240/57 67/241/57 32/242/57 25/243/57 71/244/57 59/245/57 60/246/57 72/247/57 26/248/57
f 25/249/58 1/250/58 70/251/58 71/252/58
f 1/253/59 3/254/59 69/255/59 70/256/59
f 77/257/30 78/258/30 84/259/30 83/260/30
f 75/261/30 76/262/30 82/263/30 81/264/30
f 73/265/30 74/266/30 80/267/30 79/268/30
f 12/269/60 38/270/60 82/271/60 76/272/60
f 2/273/61 16/274/61 78/275/61 77/276/61
f 39/277/62 14/278/62 75/279/62 81/280/62
f 38/281/63 39/282/63 81/283/63 82/284/63
f 16/285/64 40/286/64 84/287/64 78/288/64
f 14/289/65 12/290/65 76/291/65 75/292/65
f 10/293/66 8/294/66 74/295/66 73/296/66
f 34/297/67 2/298/67 77/299/67 83/300/67
f 36/301/68 37/302/68 79/303/68 80/304/68
f 87/305/69 88/306/69 94/307/69 93/308/69
f 85/309/30 86/310/30 92/311/30 91/312/30
f 89/313/30 90/314/30 96/315/30 95/316/30
f 38/317/70 12/318/70 87/319/70 93/320/70
f 33/321/71 4/322/71 85/323/71 91/324/71
f 14/325/72 39/326/72 96/327/72 90/328/72
f 16/329/73 14/330/73 90/331/73 89/332/73
f 40/333/74 16/334/74 89/335/74 95/336/74
f 12/337/75 10/338/75 88/339/75 87/340/75
f 39/341/76 40/342/76 95/343/76 96/344/76
f 2/345/77 34/346/77 92/347/77 86/348/77
f 4/349/78 2/350/78 86/351/78 85/352/78
f 58/353/79 60/354/79 59/355/79 57/356/79
